<?xml version="1.0" encoding="UTF-8" standalone="no"?>
<svg
   xmlns:dc="http://purl.org/dc/elements/1.1/"
   xmlns:cc="http://creativecommons.org/ns#"
   xmlns:rdf="http://www.w3.org/1999/02/22-rdf-syntax-ns#"
   xmlns:svg="http://www.w3.org/2000/svg"
   xmlns="http://www.w3.org/2000/svg"
   xmlns:sodipodi="http://sodipodi.sourceforge.net/DTD/sodipodi-0.dtd"
   xmlns:inkscape="http://www.inkscape.org/namespaces/inkscape"
   id="svg646"
   version="1.1"
   viewBox="0 0 36.833176 36.831059"
   height="36.831059mm"
   width="36.833176mm"
   sodipodi:docname="sol_prata.svg"
   inkscape:version="0.92.2 5c3e80d, 2017-08-06">
  <sodipodi:namedview
     pagecolor="#ffffff"
     bordercolor="#666666"
     borderopacity="1"
     objecttolerance="10"
     gridtolerance="10"
     guidetolerance="10"
     inkscape:pageopacity="0"
     inkscape:pageshadow="2"
     inkscape:window-width="1366"
     inkscape:window-height="723"
     id="namedview54"
     showgrid="false"
     fit-margin-top="0"
     fit-margin-left="0"
     fit-margin-right="0"
     fit-margin-bottom="0"
     inkscape:zoom="3.3638608"
     inkscape:cx="126.93994"
     inkscape:cy="61.186575"
     inkscape:window-x="0"
     inkscape:window-y="0"
     inkscape:window-maximized="1"
     inkscape:current-layer="svg646" />
  <defs
     id="defs640" />
  <metadata
     id="metadata643">
    <rdf:RDF>
      <cc:Work
         rdf:about="">
        <dc:format>image/svg+xml</dc:format>
        <dc:type
           rdf:resource="http://purl.org/dc/dcmitype/StillImage" />
        <dc:title></dc:title>
      </cc:Work>
    </rdf:RDF>
  </metadata>
  <g
     id="layer1"
     transform="translate(-10.309605,-7.1975701)"
     style="fill:#808080">
    <g
       id="g582"
       transform="matrix(0.35277777,0,0,-0.35277777,-144.54516,152.04584)"
       style="fill:#808080">
      <path
         id="path173"
         style="fill:#808080;fill-opacity:1;fill-rule:evenodd;stroke:none;stroke-width:0.1"
         d="m 478.3414,331.37553 c 0,-1.027 -0.107,-1.687 0.825,-2.61 1.786,-1.77 4.212,-1.565 4.212,0.435 0,0.519 -0.235,0.864 -0.585,1.017 -0.593,0.258 -0.537,0.072 -1.132,0.471 v 0.687 c 0.328,0.076 0.703,0.451 1.644,-0.073 0.44,-0.244 0.849,-0.644 1.19,-0.985 0.868,-0.865 1.18,-1.54 1.487,-2.863 l 4.475,-20.482 c 0.093,-0.367 0.098,-0.589 0.362,-0.782 0,0.63 0.211,1.254 0.316,1.744 l 1.923,8.495 c 0.917,3.609 1.7,8.188 2.772,11.881 1.242,4.273 5.371,3.561 3.331,1.935 -1.117,-0.89 -1.186,-2.877 0.703,-2.877 2.868,0 4.185,4.017 2.379,5.929 -1.595,1.689 -4.612,0.868 -6.306,-0.4 -2.39,-1.789 -3.586,-5.166 -4.503,-7.975 -0.118,-0.359 -0.187,-0.632 -0.284,-0.975 -0.093,-0.324 -0.134,-0.647 -0.331,-0.929 -0.136,0.584 -0.321,1.255 -0.505,1.899 -0.182,0.637 -0.373,1.324 -0.606,1.912 -0.963,2.427 -1.822,4.409 -3.957,6.003 -0.749,0.559 -2.698,1.404 -3.632,1.404 -1.178,0 -1.226,0.122 -2.14,-0.378 l -0.713,-0.547 c -0.433,-0.452 -0.925,-1.132 -0.925,-1.936"
         inkscape:connector-curvature="0" />
      <path
         id="path175"
         style="fill:#808080;fill-opacity:1;fill-rule:evenodd;stroke:none;stroke-width:0.1"
         d="m 515.3194,368.58053 c 0,-2.758 0.678,-4.149 2.49,-5.982 0.517,-0.524 0.816,-0.684 1.425,-1.093 1.502,-1.009 3.502,-1.696 5.316,-2.24 0.64,-0.191 1.396,-0.392 1.988,-0.53 l -1.818,-0.586 c -4.663,-1.481 -9.401,-3.36 -9.401,-8.916 0,-2.309 3.295,-3.802 5.744,-1.851 1.464,1.166 1.659,3.798 -0.249,3.798 -0.626,0 -1.209,-0.417 -1.504,-0.787 -1.439,-1.805 -2.074,1.175 0.435,2.657 1.033,0.609 1.86,0.796 3.131,1.105 l 14.465,3.28 c 0.312,0.079 0.454,0.153 0.809,0.221 l 3.377,0.744 c 0.559,0.115 1.181,0.335 1.84,0.335 -0.269,0.369 -0.952,0.367 -1.668,0.506 -0.341,0.068 -0.503,0.132 -0.825,0.206 l -11.789,2.521 c -2.356,0.504 -4.751,1.096 -7.173,1.643 -1.473,0.332 -3.138,1.456 -3.735,2.791 -0.331,0.739 -0.287,1.113 0.233,1.606 1.18,-0.275 0.474,-1.038 1.17,-1.578 0.949,-0.738 3.17,0.07 2.166,2.51 -1.301,3.159 -4.804,2.764 -6.063,0.65 -0.126,-0.211 -0.364,-0.716 -0.364,-1.01"
         inkscape:connector-curvature="0" />
      <path
         id="path177"
         style="fill:#808080;fill-opacity:1;fill-rule:evenodd;stroke:none;stroke-width:0.1"
         d="m 482.4624,385.29453 c -0.765,0 -0.801,0.274 -0.801,0.687 0,0.838 1.717,0.258 1.717,1.603 0,1.656 -1.295,2.06 -2.681,1.536 -0.483,-0.183 -1.138,-0.609 -1.474,-0.931 -1.273,-1.219 -1.169,-3.311 0.002,-4.53 0.251,-0.261 0.425,-0.449 0.738,-0.635 1.626,-0.965 4.34,0.058 5.73,0.985 2.88,1.923 4.365,6.604 5.126,9.871 0.206,-0.296 0.456,-1.408 0.586,-1.818 0.193,-0.608 0.399,-1.229 0.629,-1.89 1.475,-4.23 3.631,-7.511 8.287,-7.511 0.809,0 1.509,0.496 1.921,0.941 1.768,1.914 0.602,5.927 -2.493,5.927 -1.691,0 -1.689,-1.973 -0.653,-2.828 1.052,-0.867 0.519,-1.293 0.195,-1.293 -1.421,0 -2.132,0.552 -2.887,1.807 l -0.84,2.25 -3.644,15.932 c -0.136,0.593 -0.296,1.195 -0.383,1.678 -0.159,0.886 -0.718,2.907 -0.718,3.518 h -0.229 c -0.008,-0.405 -0.077,-0.496 -0.159,-0.87 l -3.512,-16.294 c -0.075,-0.336 -0.142,-0.484 -0.206,-0.824 -0.083,-0.447 -0.077,-0.428 -0.196,-0.834 -0.402,-1.378 -0.547,-3.526 -1.568,-4.728 -0.422,-0.497 -1.712,-1.749 -2.487,-1.749"
         inkscape:connector-curvature="0" />
      <path
         id="path179"
         style="fill:#808080;fill-opacity:1;fill-rule:evenodd;stroke:none;stroke-width:0.1"
         d="m 461.7404,366.17653 c 0.518,0 0.899,0.146 1.107,0.496 0.179,0.303 0.089,0.272 0.183,0.618 0.104,0.377 0.112,0.302 0.313,0.603 h 0.687 c 0.081,-0.35 0.429,-0.645 -0.033,-1.57 -0.677,-1.353 -2.251,-2.401 -3.792,-2.733 l -2.494,-0.597 c -0.368,-0.103 -0.563,-0.099 -0.956,-0.189 l -12.388,-2.723 c -0.517,-0.111 -1.202,-0.233 -1.791,-0.385 l -3.618,-0.961 c 0.602,-0.013 2.651,-0.569 3.404,-0.717 3.74,-0.738 7.952,-1.84 11.756,-2.669 0.619,-0.135 1.162,-0.242 1.693,-0.368 1.139,-0.269 2.191,-0.488 3.342,-0.78 1.386,-0.351 3.334,-0.787 4.274,-1.908 1.417,-1.69 0.56,-3.363 -0.543,-1.916 -1.037,1.359 -2.861,0.853 -2.861,-0.457 0,-4.344 6.869,-4.616 6.869,-0.458 0,5.695 -5.746,7.565 -10.29,8.943 -0.331,0.101 -0.633,0.124 -0.929,0.33 1.884,0.439 3.853,1.052 5.608,1.833 2.515,1.119 4.761,3.041 5.393,5.826 0.365,1.609 0.501,2.704 -0.781,3.935 -0.954,0.916 -1.544,0.884 -2.664,0.884 -1.926,0 -3.417,-2.757 -2.941,-3.963 0.239,-0.604 0.678,-1.074 1.452,-1.074"
         inkscape:connector-curvature="0" />
      <path
         id="path181"
         style="fill:#808080;fill-opacity:1;fill-rule:evenodd;stroke:none;stroke-width:0.1"
         d="m 491.6214,371.21353 c 0,-1.987 0.439,-2.175 2.175,-2.175 0.591,0 0.229,0.677 0.229,2.06 0,1.652 0.145,3.052 0.336,4.472 0.414,3.073 0.797,3.084 2.869,3.084 1.713,0 4.757,-1.829 5.814,-2.888 1.133,-1.135 0.268,-1.691 -0.397,-2.757 -0.251,-0.403 -0.623,-0.905 -0.926,-1.249 -2.858,-3.249 -3.751,-7.41 0.89,-9.476 2.15,-0.957 3.381,-0.875 5.66,-0.508 4.504,0.725 2.733,-0.088 4.181,-2.13 0.608,-0.858 1.117,-0.735 1.836,-0.568 0.344,0.717 0.236,5.724 -1.602,5.724 -2.82,0 -6.415,-2.299 -9.209,-0.393 -2.996,2.043 -0.962,3.82 0.187,5.523 l 1.444,1.875 c 1.474,2.171 2.613,3.401 0.698,5.233 l -1.002,0.831 c -1.115,0.819 -2.543,1.512 -3.875,2.077 -1.852,0.784 -4.998,1.911 -6.904,1.911 -0.68,0 -1.164,-1.381 -1.332,-1.873 -0.304,-0.887 -0.466,-1.684 -0.632,-2.688 -0.299,-1.812 -0.44,-3.945 -0.44,-6.085"
         inkscape:connector-curvature="0" />
      <path
         id="path183"
         style="fill:#808080;fill-opacity:1;fill-rule:evenodd;stroke:none;stroke-width:0.1"
         d="m 467.5794,357.13253 c 0,-1.125 0.224,-3.336 0.666,-4.256 0.439,-0.912 0.873,-0.781 1.509,-0.781 0.901,0 2.245,0.389 3.068,0.596 1.939,0.487 4.044,1.005 5.832,-0.282 3.207,-2.307 0.437,-4.293 -0.978,-6.403 -0.64,-0.956 -2.426,-2.963 -2.426,-4.328 0,-2.801 7.304,-5.428 9.944,-6.197 2.906,-0.849 3.679,-0.993 4.504,2.509 0.318,1.348 1.21,7.895 0.555,9.189 -0.339,0.669 -1.415,0.771 -2.296,0.566 0.068,-1.005 0.216,-2.319 0.084,-3.289 -0.138,-1.006 -0.141,-2.284 -0.395,-3.612 -0.259,-1.354 -0.417,-2.941 -2.516,-2.689 -2.061,0.247 -3.856,1.162 -5.515,2.393 -2.356,1.747 -0.585,2.546 1.244,5.137 0.891,1.261 1.832,2.615 1.832,4.579 0,1.776 -0.984,2.954 -2.059,3.665 -3.656,2.415 -6.209,0.914 -9.161,0.914 -1.24,0 -1.042,0.795 -1.447,1.643 -0.978,2.048 -2.445,1.663 -2.445,0.646"
         inkscape:connector-curvature="0" />
      <path
         id="path185"
         style="fill:#808080;fill-opacity:1;fill-rule:evenodd;stroke:none;stroke-width:0.1"
         d="m 510.6254,354.84353 c -1.945,0 -2.469,0.457 -4.694,0.457 -2.444,0 -4.992,-1.26 -5.907,-2.793 -0.595,-0.994 -0.881,-2.039 -0.547,-3.431 0.519,-2.16 2.268,-3.917 3.294,-5.406 1.042,-1.511 1.503,-1.788 -1.106,-3.679 -1.004,-0.727 -3.599,-1.862 -4.778,-1.862 -2.087,0 -2.15,1.021 -2.471,2.796 -0.314,1.744 -0.391,3.385 -0.391,5.332 0,0.696 0.114,0.835 0.114,1.488 -2.73,0.636 -2.517,-1.297 -2.518,-2.748 -0.003,-2.424 0.3,-5.591 0.988,-7.941 0.512,-1.753 1.016,-2.267 2.432,-2.006 2.722,0.502 7.586,2.302 9.779,3.961 2.889,2.187 2.48,3.29 -0.36,6.92 -1.029,1.315 -2.536,2.812 -2.536,4.561 0,0.623 0.894,1.587 1.492,1.943 0.331,0.196 0.762,0.464 1.149,0.569 2.975,0.804 4.96,-0.909 8.464,-0.909 1.161,0 2.119,5.839 0.801,5.839 -1.484,0 -1.784,-1.408 -2.167,-2.527 -0.158,-0.461 -0.431,-0.564 -1.038,-0.564"
         inkscape:connector-curvature="0" />
      <path
         id="path187"
         style="fill:#808080;fill-opacity:1;fill-rule:evenodd;stroke:none;stroke-width:0.1"
         d="m 475.2504,375.33453 c 0,-1.416 1.669,-3.511 2.42,-4.448 0.886,-1.109 2.502,-3.011 2.502,-4.366 0,-1.127 -1.936,-2.863 -4.121,-2.863 -2.458,0 -4.705,1.145 -6.755,1.145 -1.594,0 -1.717,-4.025 -1.717,-5.266 0,-0.568 1.401,-1.308 2.445,0.875 0.445,0.932 0.236,1.287 0.778,1.512 1.026,0.427 4.173,-0.441 4.791,-0.441 1.774,0 3.694,0.575 4.787,1.281 2.745,1.769 2.844,4.358 1.413,6.98 l -2.241,3.139 c -0.368,0.47 -1.097,1.266 -1.097,1.994 0,1.11 4.433,3.778 6.411,3.778 1.826,0 2.479,0.027 2.844,-2.995 0.195,-1.617 0.528,-4.066 0.272,-5.743 -0.151,-0.987 0.054,-0.878 0.891,-0.878 1.486,0 1.603,1.072 1.603,2.404 0,1.201 -0.461,10.417 -2.405,10.417 -2.998,0 -8.42,-2.299 -10.973,-4.137 l -0.194,-0.15 c -0.569,-0.441 -0.856,-0.599 -1.295,-1.338 -0.017,-0.03 -0.064,-0.118 -0.08,-0.148 -0.191,-0.343 -0.279,-0.418 -0.279,-0.752"
         inkscape:connector-curvature="0" />
      <path
         id="path189"
         style="fill:#808080;fill-opacity:1;fill-rule:evenodd;stroke:none;stroke-width:0.1"
         d="m 486.3544,358.39153 c 0.107,-0.397 2.702,-4.457 3.183,-5.288 0.62,-1.071 0.649,-0.651 0.999,-0.495 0.222,0.099 0.265,0.121 0.473,0.213 0.993,0.444 5.835,2.821 6.336,2.938 -0.154,-0.32 -0.211,-0.636 -0.379,-0.995 -1.014,-2.172 -3.237,-3.928 -5.803,-3.928 -1.502,0 -2.323,-0.042 -3.711,0.868 -1.387,0.909 -2.324,2.382 -2.947,3.922 l -0.63,2.004 c -0.081,0.337 -0.002,0.533 -0.383,0.533 h -4.694 v -1.947 c 3.518,0 2.712,0.37 3.306,-1.274 0.83,-2.299 2.554,-4.071 4.745,-5.099 3.718,-1.746 10.872,-0.604 12.932,4.853 0.151,0.399 0.416,1.292 0.426,1.749 h 2.862 v 1.718 h -5.495 c -0.372,0 -4.5,-2.194 -5.344,-2.67 -0.407,-0.228 -1.464,-0.785 -1.869,-0.879 -0.116,0.436 -1.556,2.696 -1.946,3.434 0.342,0.092 2.088,1.031 2.519,1.259 -0.084,0.36 -0.392,0.803 -0.573,1.145 -0.281,-0.075 -1.624,-0.793 -1.982,-0.994 -0.708,-0.395 -1.327,-0.697 -2.025,-1.067"
         inkscape:connector-curvature="0" />
      <path
         id="path191"
         style="fill:#808080;fill-opacity:1;fill-rule:evenodd;stroke:none;stroke-width:0.1"
         d="m 481.4324,360.56653 h -2.634 c 0,-1.182 -0.165,-1.716 0.344,-1.716 h 5.152 c 0.526,0 4.501,2.195 5.228,2.556 l 1.272,0.675 c 0.281,0.127 0.148,0.113 0.483,0.203 0.301,-0.202 1.975,-2.884 2.061,-3.206 -0.859,-0.455 -1.667,-0.922 -2.519,-1.373 0.23,-0.434 0.57,-0.706 0.687,-1.145 0.376,0.087 0.721,0.285 1.025,0.463 0.352,0.205 0.646,0.374 1.036,0.567 0.419,0.208 1.711,0.823 1.946,1.145 l -3.549,5.838 c -0.45,-0.037 -4.691,-2.086 -5.457,-2.441 -0.351,-0.163 -0.564,-0.292 -0.914,-0.46 -0.36,-0.173 -0.637,-0.25 -0.956,-0.418 0.082,0.983 1.359,2.819 2.173,3.436 2.789,2.116 7.072,2.175 9.277,-0.916 1.122,-1.572 1.552,-2.749 2.059,-4.924 l 4.011,-0.004 c 1.166,-0.02 1.027,-0.178 1.027,1.377 0,0.574 -1.887,0.343 -2.977,0.343 -0.171,2.058 -2.425,4.912 -4.005,5.956 -0.412,0.272 -0.836,0.487 -1.334,0.726 -2.792,1.338 -7.634,0.504 -10.07,-1.347 -1.464,-1.113 -2.599,-2.75 -2.967,-4.589 -0.078,-0.391 0.049,-0.746 -0.399,-0.746"
         inkscape:connector-curvature="0" />
      <path
         id="path193"
         style="fill:#808080;fill-opacity:1;fill-rule:evenodd;stroke:none;stroke-width:0.1"
         d="m 511.1704,342.27853 c 0.192,-0.734 3.21,-6.267 3.348,-6.782 -0.432,0.036 -1.348,0.511 -1.734,0.67 l -3.45,1.473 c -0.584,0.251 -1.186,0.576 -1.8,0.719 -0.127,-0.477 -0.558,-0.731 -0.887,-1.059 -0.456,-0.454 -0.59,-0.587 -0.945,-1.116 l 15.662,-7.83 c -0.669,1.353 -1.352,2.624 -2.037,3.939 l -6.298,11.79 -1.859,-1.804"
         inkscape:connector-curvature="0" />
      <path
         id="path195"
         style="fill:#808080;fill-opacity:1;fill-rule:evenodd;stroke:none;stroke-width:0.1"
         d="m 468.0374,373.27353 c 0.261,0.175 0.309,0.261 0.543,0.488 0.452,0.441 1.102,0.782 1.632,1.573 l -2.976,6.869 c 0.443,-0.119 -10e-4,0.013 0.404,-0.168 0.252,-0.112 0.233,-0.103 0.463,-0.224 l 6.002,-3.043 0.508,0.522 c 0.019,0.016 0.045,0.036 0.064,0.051 0.419,0.346 0.974,0.833 1.259,1.259 l -7.82,4.2 c -0.369,0.217 -0.621,0.305 -0.974,0.515 -0.347,0.206 -0.596,0.319 -0.976,0.512 l -4.828,2.613 c -0.404,0.217 -0.668,0.42 -1.086,0.517 0.103,-0.44 0.273,-0.609 0.435,-0.938 l 3.418,-6.886 c 0.201,-0.391 0.279,-0.489 0.466,-0.908 l 3.466,-6.952"
         inkscape:connector-curvature="0" />
      <path
         id="path197"
         style="fill:#808080;fill-opacity:1;fill-rule:evenodd;stroke:none;stroke-width:0.1"
         d="m 505.7024,381.05853 c 0.231,-0.436 0.102,-0.254 0.443,-0.587 l 1.503,-1.588 c 0.546,0.262 1.1,0.446 1.679,0.725 l 3.457,1.467 c 0.561,0.231 1.195,0.5 1.734,0.784 -0.052,-0.614 -2.122,-4.357 -2.481,-5.075 -0.244,-0.488 -0.728,-1.316 -0.839,-1.793 l 1.804,-1.86 8.385,15.712 c -0.456,-0.106 -3.274,-1.58 -3.931,-1.909 l -9.752,-4.902 c -0.718,-0.359 -1.335,-0.621 -2.002,-0.974"
         inkscape:connector-curvature="0" />
      <path
         id="path199"
         style="fill:#808080;fill-opacity:1;fill-rule:evenodd;stroke:none;stroke-width:0.1"
         d="m 460.2524,328.28453 c 0.49,0.114 4.118,2.174 4.885,2.556 2.625,1.302 6.213,3.462 8.776,4.733 l 2.023,1.068 c -0.509,0.759 -1.442,1.25 -1.831,1.831 l -6.869,-3.434 c 0.545,1.031 1.003,2.341 1.485,3.437 0.252,0.574 0.46,1.099 0.704,1.7 0.204,0.498 0.531,1.248 0.787,1.732 l -2.175,2.06 -3.106,-6.281 c -0.094,-0.184 -0.156,-0.33 -0.263,-0.538 -0.184,-0.356 -0.347,-0.694 -0.504,-0.985 -0.35,-0.651 -0.613,-1.234 -0.96,-1.902 -0.097,-0.188 -0.126,-0.251 -0.227,-0.459 l -2.725,-5.518"
         inkscape:connector-curvature="0" />
      <path
         id="path201"
         style="fill:#808080;fill-opacity:1;fill-rule:evenodd;stroke:none;stroke-width:0.1"
         d="m 503.5274,349.92053 c 0,-0.832 0.014,-1.509 0.717,-2.145 1.787,-1.616 4.206,-0.16 4.206,1.573 0,0.766 0.104,1.021 -0.377,1.683 -1.647,2.269 -4.546,0.713 -4.546,-1.111"
         inkscape:connector-curvature="0" />
      <path
         id="path203"
         style="fill:#808080;fill-opacity:1;fill-rule:evenodd;stroke:none;stroke-width:0.1"
         d="m 473.5324,367.32153 c 0,-2.516 3.254,-3.683 4.692,-1.372 0.799,1.285 0.394,3.776 -2.402,3.776 -1.21,0 -2.29,-1.238 -2.29,-2.404"
         inkscape:connector-curvature="0" />
      <path
         id="path205"
         style="fill:#808080;fill-opacity:1;fill-rule:evenodd;stroke:none;stroke-width:0.1"
         d="m 505.9314,364.68853 c 1.343,0 2.519,1.21 2.519,2.06 0,1.136 0.107,1.451 -0.655,2.208 -0.87,0.866 -2.031,1.039 -3.05,0.466 -0.372,-0.209 -0.428,-0.262 -0.682,-0.576 -0.736,-0.914 -0.767,-2.156 -0.19,-3.011 0.109,-0.162 -0.003,-0.015 0.154,-0.19 0.399,-0.443 1.165,-0.957 1.904,-0.957"
         inkscape:connector-curvature="0" />
      <path
         id="path207"
         style="fill:#808080;fill-opacity:1;fill-rule:evenodd;stroke:none;stroke-width:0.1"
         d="m 478.5704,349.23353 v 0.573 c 0,2.275 -3.572,3.464 -4.701,0.922 -0.112,-0.252 -0.308,-0.601 -0.322,-0.928 -0.044,-1.047 0.478,-1.858 1.289,-2.355 0.248,-0.152 0.679,-0.211 0.99,-0.283 0.564,-0.13 0.438,-0.044 0.749,0.049 0.029,0.008 0.059,0.019 0.089,0.027 0.677,0.185 0.519,-0.011 0.966,0.416 0.35,0.334 0.94,0.958 0.94,1.579"
         inkscape:connector-curvature="0" />
      <path
         id="path209"
         style="fill:#808080;fill-opacity:1;fill-rule:evenodd;stroke:none;stroke-width:0.1"
         d="m 470.0984,365.37553 c 1.094,0 0.968,-0.014 1.925,1.395 l 3.456,5.245 c 0,0.713 -0.891,1.733 -1.44,1.333 -0.052,-0.038 -0.457,-0.549 -0.522,-0.632 l -0.621,-0.752 c -0.739,-0.869 -3.457,-4.791 -3.711,-5.574 -0.216,-0.664 0.483,-1.015 0.913,-1.015"
         inkscape:connector-curvature="0" />
      <path
         id="path211"
         style="fill:#808080;fill-opacity:1;fill-rule:evenodd;stroke:none;stroke-width:0.1"
         d="m 506.6184,344.65453 c 0,-0.311 0.208,-0.618 0.426,-0.833 0.225,-0.222 0.501,-0.349 0.833,-0.426 0.89,0.596 5.038,6.727 5.038,7.212 0,0.949 -1.547,1.286 -2.184,0.466 l -1.8,-2.664 c -0.394,-0.59 -2.313,-3.258 -2.313,-3.755"
         inkscape:connector-curvature="0" />
      <path
         id="path213"
         style="fill:#808080;fill-opacity:1;fill-rule:evenodd;stroke:none;stroke-width:0.1"
         d="m 506.6184,372.35853 c 0,-0.833 1.702,-2.892 2.211,-3.743 l 1.201,-1.775 c 0.693,-1.039 0.707,-1.465 1.854,-1.465 0.475,0 1.031,0.321 1.031,0.801 0,0.712 -4.119,6.635 -5.152,7.327 -0.324,-0.172 -1.145,-0.718 -1.145,-1.145"
         inkscape:connector-curvature="0" />
      <path
         id="path215"
         style="fill:#808080;fill-opacity:1;fill-rule:evenodd;stroke:none;stroke-width:0.1"
         d="m 474.2194,343.39553 c 0.576,0.134 1.26,0.694 1.26,1.374 0,0.316 -0.631,0.924 -0.82,1.241 l -2.063,3.203 c -0.211,0.325 -0.416,0.525 -0.634,0.855 -0.147,0.224 -0.121,0.222 -0.244,0.442 -0.106,0.187 -0.183,0.303 -0.323,0.478 -0.876,1.104 -2.724,0.323 -2.178,-0.677 0.108,-0.198 0.213,-0.334 0.347,-0.581 l 1.078,-1.67 c 0.188,-0.229 0.222,-0.258 0.395,-0.52 0.595,-0.902 2.64,-3.782 3.182,-4.145"
         inkscape:connector-curvature="0" />
      <path
         id="path217"
         style="fill:#808080;fill-opacity:1;fill-rule:evenodd;stroke:none;stroke-width:0.1"
         d="m 516.9214,355.87353 c 0.749,0.017 4.288,1.882 5.35,2.321 0.431,0.178 0.468,0.085 0.718,0.426 -0.91,0.212 -5.353,2.574 -6.068,2.634 v -5.381"
         inkscape:connector-curvature="0" />
      <path
         id="path219"
         style="fill:#808080;fill-opacity:1;fill-rule:evenodd;stroke:none;stroke-width:0.1"
         d="m 490.5904,326.45253 2.137,4.619 c 0.227,0.459 0.655,0.863 0.046,0.986 -0.316,0.063 -1.297,0.041 -1.642,0.088 -0.551,0.075 -1.128,0.011 -1.689,0.027 -0.606,0.018 -0.865,0.119 -1.599,0.119 0.572,-1.082 2.243,-5.469 2.747,-5.839"
         inkscape:connector-curvature="0" />
      <path
         id="path221"
         style="fill:#808080;fill-opacity:1;fill-rule:evenodd;stroke:none;stroke-width:0.1"
         d="m 459.4514,358.96453 v -0.229 c 0.385,-0.032 2.289,-0.983 2.786,-1.22 0.477,-0.229 0.818,-0.438 1.302,-0.645 0.551,-0.235 0.925,-0.399 1.407,-0.654 0,0.78 0.225,2.468 0.225,3.897 0,0.663 0.118,0.795 0.118,1.369 -0.365,-0.03 -1.138,-0.418 -1.486,-0.573 l -2.832,-1.29 c -0.473,-0.202 -1.108,-0.559 -1.52,-0.655"
         inkscape:connector-curvature="0" />
      <path
         id="path223"
         style="fill:#808080;fill-opacity:1;fill-rule:evenodd;stroke:none;stroke-width:0.1"
         d="m 488.4154,384.26453 c 1.793,0 3.367,-0.23 5.266,-0.23 l -2.747,5.725 -1.91,-4.044 c -0.176,-0.352 -0.528,-1.106 -0.609,-1.451"
         inkscape:connector-curvature="0" />
      <path
         id="path225"
         style="fill:#808080;fill-opacity:1;fill-rule:evenodd;stroke:none;stroke-width:0.1"
         d="m 480.0584,375.56353 1.946,-3.548 c 0.541,0.144 2.55,1.564 3.205,1.717 -0.127,0.545 -1.816,3.062 -1.946,3.549 -0.365,-0.031 -2.689,-1.372 -3.205,-1.718"
         inkscape:connector-curvature="0" />
      <path
         id="path227"
         style="fill:#808080;fill-opacity:1;fill-rule:evenodd;stroke:none;stroke-width:0.1"
         d="m 479.6004,340.87753 c 0.524,-0.278 0.966,-0.57 1.523,-0.881 0.432,-0.241 1.199,-0.797 1.682,-0.837 0.329,0.621 0.627,1.019 0.954,1.68 0.317,0.643 0.664,1.134 0.993,1.754 -0.485,0.325 -2.738,1.679 -3.206,1.718 l -0.94,-1.693 c -0.183,-0.332 -0.331,-0.527 -0.51,-0.864 -0.206,-0.388 -0.275,-0.548 -0.496,-0.877"
         inkscape:connector-curvature="0" />
      <path
         id="path229"
         style="fill:#808080;fill-opacity:1;fill-rule:evenodd;stroke:none;stroke-width:0.1"
         d="m 497.0014,342.59353 c 0.173,-0.326 0.267,-0.5 0.459,-0.8 l 1.488,-2.634 c 0.552,0.046 2.67,1.359 3.206,1.718 -0.326,0.613 -0.648,1.127 -0.992,1.756 -0.246,0.449 -0.748,1.442 -1.069,1.678 l -3.092,-1.718"
         inkscape:connector-curvature="0" />
      <path
         id="path231"
         style="fill:#808080;fill-opacity:1;fill-rule:evenodd;stroke:none;stroke-width:0.1"
         d="m 502.0394,375.56353 -0.361,0.212 c -0.624,0.361 -2.246,1.465 -2.73,1.506 -0.291,-0.549 -0.519,-1.112 -0.85,-1.67 -0.345,-0.582 -0.682,-1.084 -0.982,-1.65 0.389,-0.581 0.894,-0.652 1.512,-1.007 0.417,-0.24 1.204,-0.839 1.579,-0.939 l 0.918,1.829 c 0.167,0.294 0.341,0.494 0.534,0.843 l 0.38,0.876"
         inkscape:connector-curvature="0" />
      <path
         id="path233"
         style="fill:#808080;fill-opacity:1;fill-rule:evenodd;stroke:none;stroke-width:0.1"
         d="m 470.8994,359.99453 v -3.32 h 3.663 c 0,3.975 0.224,3.669 -0.604,3.615 -0.267,-0.017 -0.123,0 -0.411,-0.007 -1.021,-0.026 -2.648,0.375 -2.648,-0.288"
         inkscape:connector-curvature="0" />
      <path
         id="path235"
         style="fill:#808080;fill-opacity:1;fill-rule:evenodd;stroke:none;stroke-width:0.1"
         d="m 507.4204,360.45253 v -3.549 h 3.663 v 3.549 c -1.144,0.267 -2.508,0.121 -3.663,0"
         inkscape:connector-curvature="0" />
      <path
         id="path237"
         style="fill:#808080;fill-opacity:1;fill-rule:evenodd;stroke:none;stroke-width:0.1"
         d="m 508.3364,378.42553 c 0.329,-0.492 0.796,-0.853 1.23,-1.288 0.375,-0.374 0.892,-1.094 1.402,-1.23 0.202,0.863 1.86,3.602 2.061,4.464 -0.544,-0.126 -0.734,-0.312 -1.113,-0.489 l -3.58,-1.457"
         inkscape:connector-curvature="0" />
      <path
         id="path239"
         style="fill:#808080;fill-opacity:1;fill-rule:evenodd;stroke:none;stroke-width:0.1"
         d="m 468.8384,336.87053 c 0.607,0.141 2.537,1.082 3.36,1.449 0.356,0.158 0.891,0.42 1.22,0.497 -0.105,0.45 -1.397,1.624 -1.814,1.963 -0.253,0.206 -0.516,0.474 -0.819,0.555 -0.036,-0.426 -1.758,-4.109 -1.947,-4.464"
         inkscape:connector-curvature="0" />
      <path
         id="path241"
         style="fill:#808080;fill-opacity:1;fill-rule:evenodd;stroke:none;stroke-width:0.1"
         d="m 508.4504,338.81653 c 1.098,-0.581 3.53,-1.443 4.579,-1.946 -0.185,0.796 -1.838,3.509 -2.061,4.464 -0.413,-0.11 -2.408,-2.105 -2.518,-2.518"
         inkscape:connector-curvature="0" />
      <path
         id="path243"
         style="fill:#808080;fill-opacity:1;fill-rule:evenodd;stroke:none;stroke-width:0.1"
         d="m 470.7854,375.90753 c 0.36,0.096 0.624,0.42 0.864,0.624 l 0.539,0.491 c 0.566,0.564 1.124,0.951 1.23,1.403 -0.826,0.193 -3.647,1.729 -4.58,1.946 0.273,-0.515 1.802,-3.844 1.947,-4.464"
         inkscape:connector-curvature="0" />
      <path
         id="path245"
         style="fill:#808080;fill-opacity:1;fill-rule:evenodd;stroke:none;stroke-width:0.1"
         d="m 483.2634,347.28753 c 0.339,-0.079 0.524,-0.195 0.796,-0.349 l 1.572,-0.832 c 0.303,-0.17 0.559,-0.274 0.838,-0.422 0.184,0.348 0.654,1.091 0.687,1.489 -0.419,0.097 -0.305,0.121 -0.788,0.356 -0.67,0.326 -1.991,1.12 -2.532,1.246 -0.355,-0.739 -0.561,-0.969 -0.573,-1.488"
         inkscape:connector-curvature="0" />
      <path
         id="path247"
         style="fill:#808080;fill-opacity:1;fill-rule:evenodd;stroke:none;stroke-width:0.1"
         d="m 482.2334,345.11253 3.206,-1.603 c 0.135,0.256 0.204,0.404 0.366,0.664 0.192,0.304 0.285,0.4 0.32,0.824 -0.44,0.103 -0.786,0.342 -1.168,0.549 l -2.152,1.054 c -0.141,-0.604 -0.52,-0.86 -0.572,-1.488"
         inkscape:connector-curvature="0" />
      <path
         id="path249"
         style="fill:#808080;fill-opacity:1;fill-rule:evenodd;stroke:none;stroke-width:0.1"
         d="m 483.6074,369.03853 0.689,-1.372 c 0.821,0.19 2.649,1.422 3.318,1.601 -0.11,0.471 -0.47,1.131 -0.802,1.374 -0.371,-0.087 -0.451,-0.21 -0.772,-0.373 -0.153,-0.078 -0.244,-0.108 -0.388,-0.184 l -2.045,-1.046"
         inkscape:connector-curvature="0" />
      <path
         id="path251"
         style="fill:#808080;fill-opacity:1;fill-rule:evenodd;stroke:none;stroke-width:0.1"
         d="m 482.6914,371.32853 c 0.019,-0.854 0.413,-0.804 0.572,-1.488 0.858,0.199 2.638,1.443 3.321,1.602 -0.053,0.63 -0.521,0.744 -0.573,1.374 -0.688,-0.016 -1.181,-0.444 -1.681,-0.724 -0.383,-0.215 -1.249,-0.674 -1.639,-0.764"
         inkscape:connector-curvature="0" />
      <path
         id="path253"
         style="fill:#808080;fill-opacity:1;fill-rule:evenodd;stroke:none;stroke-width:0.1"
         d="m 494.5974,369.26753 0.794,-0.351 c 0.264,-0.142 0.503,-0.3 0.808,-0.451 0.44,-0.218 1.253,-0.692 1.718,-0.801 0.219,0.413 0.56,0.909 0.573,1.488 -0.743,0.173 -2.59,1.372 -3.091,1.489 -0.332,-0.243 -0.692,-0.903 -0.802,-1.374"
         inkscape:connector-curvature="0" />
      <path
         id="path255"
         style="fill:#808080;fill-opacity:1;fill-rule:evenodd;stroke:none;stroke-width:0.1"
         d="m 495.6284,344.88353 0.686,-1.374 3.206,1.603 c -0.015,0.663 -0.426,0.862 -0.572,1.488 -0.256,-0.068 -1.447,-0.698 -1.757,-0.881 -0.92,-0.542 -0.814,-0.334 -1.563,-0.836"
         inkscape:connector-curvature="0" />
      <path
         id="path257"
         style="fill:#808080;fill-opacity:1;fill-rule:evenodd;stroke:none;stroke-width:0.1"
         d="m 494.5974,347.17353 c 0.141,-0.606 0.558,-1.003 0.687,-1.489 l 3.206,1.718 c -0.181,0.378 -0.08,0.442 -0.573,1.373 -0.734,-0.171 -2.603,-1.435 -3.32,-1.602"
         inkscape:connector-curvature="0" />
      <path
         id="path259"
         style="fill:#808080;fill-opacity:1;fill-rule:evenodd;stroke:none;stroke-width:0.1"
         d="m 495.6284,371.44253 c 1.043,-0.243 2.234,-1.35 3.32,-1.602 0.132,0.496 0.398,0.626 0.572,1.373 l -3.091,1.603 c -0.287,-0.193 -0.765,-0.943 -0.801,-1.374"
         inkscape:connector-curvature="0" />
      <path
         id="path261"
         style="fill:#808080;fill-opacity:1;fill-rule:evenodd;stroke:none;stroke-width:0.1"
         d="m 475.1354,359.99453 v -3.434 c 1.986,0 1.312,-0.101 1.317,2.404 l 0.057,1.03 c 0,0.36 0.123,0.293 -0.687,0.293 -0.629,0 -0.687,0.089 -0.687,-0.293"
         inkscape:connector-curvature="0" />
      <path
         id="path263"
         style="fill:#808080;fill-opacity:1;fill-rule:evenodd;stroke:none;stroke-width:0.1"
         d="m 505.5884,356.90353 h 1.259 v 3.663 h -1.259 v -3.663"
         inkscape:connector-curvature="0" />
      <path
         id="path265"
         style="fill:#808080;fill-opacity:1;fill-rule:evenodd;stroke:none;stroke-width:0.1"
         d="m 502.0394,375.56353 v -0.115 l 0.133,0.096 z"
         inkscape:connector-curvature="0" />
    </g>
  </g>
</svg>
